<?xml version="1.0" encoding="UTF-8" standalone="yes"?>
<!DOCTYPE svg PUBLIC "-//W3C//DTD SVG 1.0//EN" "http://www.w3.org/TR/2001/REC-SVG-20010904/DTD/svg10.dtd">
<svg height="600" width="800" xmlns="http://www.w3.org/2000/svg" xmlns:svg="http://www.w3.org/2000/svg" xmlns:xlink="http://www.w3.org/1999/xlink">
	<line style="stroke: black" x1="200" x2="654.885343968096" y1="95" y2="95" />
	<text x="10" y="95">OG_10_2247279_2720175</text>
	<line style="stroke: black" x1="444.952642073779" x2="623.666500498505" y1="101" y2="101" />
	<rect height="8" style="fill: black" width="11.6836989032901" x="444.952642073779" y="97" />
	<rect height="8" style="fill: black" width="14.5189431704885" x="513.341226321037" y="97" />
	<rect height="8" style="fill: black" width="3.05333998005982" x="583.661515453639" y="97" />
	<rect height="8" style="fill: black" width="9.25348953140578" x="595.906031904287" y="97" />
	<rect height="8" style="fill: black" width="12.7118644067797" x="610.985792622134" y="97" />
	<line style="stroke: black" x1="231.156530408774" x2="294.435443668993" y1="101" y2="101" />
	<rect height="8" style="fill: black" width="2.02517447657029" x="231.156530408774" y="97" />
	<rect height="8" style="fill: black" width="35.4561316051845" x="259.010468594217" y="97" />
	<polyline points="348.305084745763,97 351.451894317049,97 351.451894317049,105 348.305084745763,105 " style="fill: blue" />
	<polyline points="326.682452642074,93 333.848454636092,93 333.848454636092,85 326.682452642074,85 " style="fill: blue" />
	<polyline points="545.058574277169,97 552.411515453639,97 552.411515453639,105 545.058574277169,105 " style="fill: blue" />
	<polyline points="529.199900299103,93 536.023180458624,93 536.023180458624,85 529.199900299103,85 " style="fill: blue" />
	<polyline points="372.077517447657,97 376.377118644068,97 376.377118644068,105 372.077517447657,105 " style="fill: blue" />
	<polyline points="318.831006979063,93 323.068295114656,93 323.068295114656,85 318.831006979063,85 " style="fill: blue" />
	<polyline points="590.266699900299,93 595.002492522433,93 595.002492522433,85 590.266699900299,85 " style="fill: blue" />
	<polyline points="458.194167497508,97 466.01445663011,97 466.01445663011,105 458.194167497508,105 " style="fill: blue" />
	<polyline points="504.492771684945,93 512.655782652044,93 512.655782652044,85 504.492771684945,85 " style="fill: blue" />
	<polyline points="298.111914257228,97 305.68295114656,97 305.68295114656,105 298.111914257228,105 " style="fill: blue" />
	<polyline points="333.879611166501,93 338.615403788634,93 338.615403788634,85 333.879611166501,85 " style="fill: blue" />
	<polyline points="339.082751744766,93 341.544117647059,93 341.544117647059,85 339.082751744766,85 " style="fill: blue" />
	<line style="stroke: black" x1="200" x2="658.873379860419" y1="195" y2="195" />
	<text x="10" y="195">OS_Chr10_2616367_3045941</text>
	<line style="stroke: black" x1="449.189930209372" x2="627.654536390828" y1="201" y2="201" />
	<rect height="8" style="fill: black" width="11.6836989032901" x="449.189930209372" y="197" />
	<rect height="8" style="fill: black" width="14.5189431704885" x="517.671984047857" y="197" />
	<rect height="8" style="fill: black" width="3.05333998005982" x="587.026420737787" y="197" />
	<rect height="8" style="fill: black" width="9.25348953140578" x="599.239780658026" y="197" />
	<rect height="8" style="fill: black" width="12.7118644067797" x="614.973828514457" y="197" />
	<line style="stroke: black" x1="231.156530408774" x2="298.392323030907" y1="201" y2="201" />
	<rect height="8" style="fill: black" width="2.02517447657029" x="231.156530408774" y="197" />
	<rect height="8" style="fill: black" width="35.4561316051845" x="262.967347956132" y="197" />
	<polyline points="337.774177467597,193 342.509970089731,193 342.509970089731,185 337.774177467597,185 " style="fill: blue" />
	<polyline points="330.577018943171,193 337.743020937188,193 337.743020937188,185 330.577018943171,185 " style="fill: blue" />
	<polyline points="569.92148554337,197 571.354685942174,197 571.354685942174,205 569.92148554337,205 " style="fill: blue" />
	<polyline points="549.327018943171,197 556.71111665005,197 556.71111665005,205 549.327018943171,205 " style="fill: blue" />
	<polyline points="322.164755732802,193 326.994017946162,193 326.994017946162,185 322.164755732802,185 " style="fill: blue" />
	<polyline points="593.53813559322,193 598.336241276171,193 598.336241276171,185 593.53813559322,185 " style="fill: blue" />
	<polyline points="533.530658025922,193 540.385094715852,193 540.385094715852,185 533.530658025922,185 " style="fill: blue" />
	<polyline points="342.977318045862,193 345.438683948156,193 345.438683948156,185 342.977318045862,185 " style="fill: blue" />
	<polyline points="302.068793619143,197 309.639830508475,197 309.639830508475,205 302.068793619143,205 " style="fill: blue" />
	<polyline points="352.542372881356,197 355.689182452642,197 355.689182452642,205 352.542372881356,205 " style="fill: blue" />
	<polyline points="462.431455633101,197 470.625623130608,197 470.625623130608,205 462.431455633101,205 " style="fill: blue" />
	<polyline points="376.31480558325,197 380.988285144566,197 380.988285144566,205 376.31480558325,205 " style="fill: blue" />
	<polyline points="508.823529411765,193 516.986540378863,193 516.986540378863,185 508.823529411765,185 " style="fill: blue" />
	<line style="stroke: black" x1="200" x2="700" y1="295" y2="295" />
	<text x="10" y="295">OS_Chr10_2616367_3045941.evolved</text>
	<line style="stroke: black" x1="462.680707876371" x2="668.126869391825" y1="301" y2="301" />
	<rect height="8" style="fill: black" width="11.6836989032901" x="462.680707876371" y="297" />
	<rect height="8" style="fill: black" width="14.5189431704885" x="531.162761714855" y="297" />
	<rect height="8" style="fill: black" width="3.05333998005982" x="627.498753738784" y="297" />
	<rect height="8" style="fill: black" width="9.25348953140578" x="639.712113659023" y="297" />
	<rect height="8" style="fill: black" width="12.7118644067797" x="655.446161515454" y="297" />
	<line style="stroke: black" x1="231.156530408774" x2="298.392323030907" y1="301" y2="301" />
	<rect height="8" style="fill: black" width="2.02517447657029" x="231.156530408774" y="297" />
	<rect height="8" style="fill: black" width="35.4561316051845" x="262.967347956132" y="297" />
	<polyline points="351.264955134596,293 356.00074775673,293 356.00074775673,285 351.264955134596,285 " style="fill: blue" />
	<polyline points="562.81779661017,297 570.201894317049,297 570.201894317049,305 562.81779661017,305 " style="fill: blue" />
	<polyline points="547.021435692921,293 553.875872382851,293 553.875872382851,285 547.021435692921,285 " style="fill: blue" />
	<polyline points="356.468095712861,293 358.929461615155,293 358.929461615155,285 356.468095712861,285 " style="fill: blue" />
	<polyline points="366.033150548355,297 369.179960119641,297 369.179960119641,305 366.033150548355,305 " style="fill: blue" />
	<polyline points="522.314307078764,293 530.477318045862,293 530.477318045862,285 522.314307078764,285 " style="fill: blue" />
	<polyline points="344.067796610169,293 351.233798604187,293 351.233798604187,285 344.067796610169,285 " style="fill: blue" />
	<polyline points="309.733300099701,293 323.130608175474,293 323.130608175474,285 309.733300099701,285 " style="fill: blue" />
	<polyline points="583.412263210369,297 584.845463609172,297 584.845463609172,305 583.412263210369,305 " style="fill: blue" />
	<polyline points="335.655533399801,293 340.484795613161,293 340.484795613161,285 335.655533399801,285 " style="fill: blue" />
	<polyline points="609.770687936192,297 623.167996011964,297 623.167996011964,305 609.770687936192,305 " style="fill: blue" />
	<polyline points="634.010468594217,293 638.808574277169,293 638.808574277169,285 634.010468594217,285 " style="fill: blue" />
	<polyline points="475.9222333001,297 484.116400797607,297 484.116400797607,305 475.9222333001,305 " style="fill: blue" />
	<polyline points="302.068793619143,297 309.639830508475,297 309.639830508475,305 302.068793619143,305 " style="fill: blue" />
	<polyline points="389.805583250249,297 394.479062811565,297 394.479062811565,305 389.805583250249,305 " style="fill: blue" />
	<polyline points="593.475822532403,297 606.873130608176,297 606.873130608176,305 593.475822532403,305 " style="fill: blue" />
	<line style="stroke: black" x1="200" x2="685.01370887338" y1="395" y2="395" />
	<text x="10" y="395">HEG4_chr10_2404092_2868093.update</text>
	<line style="stroke: black" x1="379.430458624128" x2="461.901794616152" y1="389" y2="389" />
	<rect height="8" style="fill: black" width="12.1510468594217" x="379.430458624128" y="385" />
	<rect height="8" style="fill: black" width="12.1510468594217" x="379.430458624128" y="385" />
	<rect height="8" style="fill: black" width="11.3098205383848" x="450.623130608176" y="385" />
	<rect height="8" style="fill: black" width="11.3098205383848" x="450.623130608176" y="385" />
	<line style="stroke: black" x1="641.083000997009" x2="681.835742771685" y1="401" y2="401" />
	<rect height="8" style="fill: black" width="3.17796610169492" x="641.083000997009" y="397" />
	<rect height="8" style="fill: black" width="3.17796610169492" x="641.083000997009" y="397" />
	<rect height="8" style="fill: black" width="8.22532402791625" x="654.168743768694" y="397" />
	<rect height="8" style="fill: black" width="8.22532402791625" x="654.168743768694" y="397" />
	<rect height="8" style="fill: black" width="12.7118644067797" x="669.155034895314" y="397" />
	<rect height="8" style="fill: black" width="12.7118644067797" x="669.155034895314" y="397" />
	<line style="stroke: black" x1="380.458624127617" x2="427.286889332004" y1="401" y2="401" />
	<rect height="8" style="fill: black" width="11.839481555334" x="380.458624127617" y="397" />
	<rect height="8" style="fill: black" width="11.839481555334" x="380.458624127617" y="397" />
	<rect height="8" style="fill: black" width="2.46136590229312" x="416.942921236291" y="397" />
	<rect height="8" style="fill: black" width="2.46136590229312" x="416.942921236291" y="397" />
	<rect height="8" style="fill: black" width="4.95388833499502" x="422.364157527418" y="397" />
	<rect height="8" style="fill: black" width="4.95388833499502" x="422.364157527418" y="397" />
	<line style="stroke: black" x1="265.833748753739" x2="298.049601196411" y1="401" y2="401" />
	<rect height="8" style="fill: black" width="32.2470089730808" x="265.833748753739" y="397" />
	<rect height="8" style="fill: black" width="32.2470089730808" x="265.833748753739" y="397" />
	<polyline points="440.466101694915,393 448.660269192423,393 448.660269192423,385 440.466101694915,385 " style="fill: blue" />
	<polyline points="623.510717846461,397 636.876869391825,397 636.876869391825,405 623.510717846461,405 " style="fill: blue" />
	<polyline points="535.836241276171,393 540.509720837488,393 540.509720837488,385 535.836241276171,385 " style="fill: blue" />
	<polyline points="574.314556331007,397 579.050348953141,397 579.050348953141,405 574.314556331007,405 " style="fill: blue" />
	<polyline points="325.747756729811,393 330.888584247258,393 330.888584247258,385 325.747756729811,385 " style="fill: blue" />
	<polyline points="579.081505483549,397 586.247507477567,397 586.247507477567,405 579.081505483549,405 " style="fill: blue" />
	<polyline points="647.719341974078,393 652.517447657029,393 652.517447657029,385 647.719341974078,385 " style="fill: blue" />
	<polyline points="339.73703888335,393 341.170239282154,393 341.170239282154,385 339.73703888335,385 " style="fill: blue" />
	<polyline points="370.706630109671,397 377.529910269192,397 377.529910269192,405 370.706630109671,405 " style="fill: blue" />
	<polyline points="607.215852442672,397 620.582003988036,397 620.582003988036,405 607.215852442672,405 " style="fill: blue" />
	<polyline points="309.421734795613,393 322.787886340977,393 322.787886340977,385 309.421734795613,385 " style="fill: blue" />
	<polyline points="301.726071784646,397 309.297108673978,397 309.297108673978,405 301.726071784646,405 " style="fill: blue" />
	<polyline points="394.10518444666,397 402.268195413759,397 402.268195413759,405 394.10518444666,405 " style="fill: blue" />
	<polyline points="571.385842472582,397 573.847208374875,397 573.847208374875,405 571.385842472582,405 " style="fill: blue" />
	<polyline points="589.830508474576,397 594.659770687936,397 594.659770687936,405 589.830508474576,405 " style="fill: blue" />
	<polyline points="354.380608175474,393 361.764705882353,393 361.764705882353,385 354.380608175474,385 " style="fill: blue" />
	<polyline points="561.135343968096,393 564.282153539382,393 564.282153539382,385 561.135343968096,385 " style="fill: blue" />
	<polyline points="413.858424725823,110 560.854935194417,110 565.123379860419,180 418.126869391825,180 " style="fill: #778899" />
	<polyline points="247.451395812562,110 382.265702891326,110 386.876869391825,180 251.408275174477,180 " style="fill: #778899" />
	<polyline points="561.727318045862,110 654.791874376869,110 658.686440677966,180 565.09222333001,180 " style="fill: #778899" />
	<polyline points="200.342721834497,110 245.924725822532,110 245.955882352941,180 200.031156530409,180 " style="fill: #778899" />
	<polyline points="326.744765702891,110 333.879611166501,110 302.037637088734,180 309.172482552343,180 " style="fill: red" />
	<polyline points="247.451395812562,110 249.850448654038,110 250.847457627119,180 248.417248255234,180 " style="fill: #778899" />
	<polyline points="298.08075772682,110 305.215603190429,110 330.639332003988,180 337.774177467597,180 " style="fill: red" />
	<polyline points="372.420239282154,110 376.283649052841,110 376.439431704885,180 380.302841475573,180 " style="fill: red" />
	<polyline points="545.02741774676,110 547.488783649053,110 554.343220338983,180 556.804586241276,180 " style="fill: red" />
	<polyline points="550.043619142572,110 552.504985044865,110 549.295862412762,180 551.788384845464,180 " style="fill: red" />
	<polyline points="458.225324027916,110 461.247507477567,110 334.689680957129,180 337.71186440678,180 " style="fill: red" />
	<polyline points="329.361914257228,110 333.817298105683,110 462.46261216351,180 466.917996011964,180 " style="fill: red" />
	<polyline points="504.523928215354,110 507.483798604187,110 514.057826520439,180 517.017696909272,180 " style="fill: red" />
	<polyline points="418.095712861416,210 580.047357926221,210 593.53813559322,280 431.586490528415,280 " style="fill: #778899" />
	<polyline points="200.031156530409,210 309.76445663011,210 309.76445663011,280 200.031156530409,280 " style="fill: #778899" />
	<polyline points="309.639830508475,210 386.783399800598,210 400.274177467597,280 323.130608175474,280 " style="fill: #778899" />
	<polyline points="582.757976071785,210 658.873379860419,210 699.345712861416,280 623.230309072782,280 " style="fill: #778899" />
	<polyline points="579.953888334995,210 582.851445663011,210 609.833000997009,280 606.935443668993,280 " style="fill: #778899" />
	<polyline points="330.639332003988,210 337.774177467597,210 302.037637088734,280 309.172482552343,280 " style="fill: red" />
	<polyline points="302.037637088734,210 309.172482552343,210 344.130109670987,280 351.264955134596,280 " style="fill: red" />
	<polyline points="376.439431704885,210 380.89481555334,210 389.930209371884,280 394.385593220339,280 " style="fill: red" />
	<polyline points="554.343220338983,210 556.804586241276,210 562.786640079761,280 565.279162512463,280 " style="fill: red" />
	<polyline points="549.295862412762,210 551.788384845464,210 567.833998005982,280 570.295363908275,280 " style="fill: red" />
	<polyline points="462.46261216351,210 466.917996011964,210 346.747258225324,280 351.202642073779,280 " style="fill: red" />
	<polyline points="333.256480558325,210 337.71186440678,210 475.953389830509,280 480.408773678963,280 " style="fill: red" />
	<polyline points="431.493020937188,310 593.444666001994,310 331.168993020937,380 493.120638085743,380 " style="fill: red" />
	<polyline points="200.031156530409,310 323.161764705882,310 322.819042871386,380 200.124626121635,380 " style="fill: #778899" />
	<polyline points="309.639830508475,310 400.274177467597,310 530.072283150548,380 620.73778664008,380 " style="fill: red" />
	<polyline points="593.444666001994,310 671.304835493519,310 685.01370887338,380 607.153539381854,380 " style="fill: #778899" />
	<polyline points="601.763459621137,310 623.230309072782,310 309.390578265204,380 330.888584247258,380 " style="fill: red" />
	<polyline points="593.506979062812,310 607.028913260219,310 309.297108673978,380 322.819042871386,380 " style="fill: red" />
	<polyline points="309.733300099701,310 323.161764705882,310 623.510717846461,380 636.939182452642,380 " style="fill: red" />
	<polyline points="309.639830508475,310 314.905284147557,310 330.888584247258,380 325.623130608175,380 " style="fill: #778899" />
	<polyline points="344.130109670987,310 351.264955134596,310 301.694915254237,380 308.829760717846,380 " style="fill: red" />
	<polyline points="302.037637088734,310 309.172482552343,310 586.216350947159,380 579.081505483549,380 " style="fill: #778899" />
	<polyline points="389.930209371884,310 394.385593220339,310 540.416251246261,380 535.960867397807,380 " style="fill: #778899" />
	<polyline points="562.786640079761,310 565.279162512463,310 356.779661016949,380 354.318295114656,380 " style="fill: #778899" />
	<polyline points="567.833998005982,310 570.295363908275,310 361.827018943171,380 359.334496510469,380 " style="fill: #778899" />
	<polyline points="346.747258225324,310 351.202642073779,310 448.660269192423,380 444.204885343968,380 " style="fill: #778899" />
	<line style="stroke: black" x1="550" x2="705.782652043868" y1="440" y2="440" />
	<text style="text-anchor: start; font-weight: 100; font-size: 70%" x="710.782652043868" y="440">5 Kb</text>
	<rect height="10" style="fill: black" width="10" x="400" y="435" />
	<text style="text-anchor: start; font-weight: 100; font-size: 70%" x="418" y="441">GENE</text>
	<rect height="10" style="fill: red" width="10" x="450" y="435" />
	<text style="text-anchor: start; font-weight: 100; font-size: 70%" x="468" y="441">LTR</text>
	<rect height="10" style="fill: blue" width="10" x="500" y="435" />
	<text style="text-anchor: start; font-weight: 100; font-size: 70%" x="518" y="441">DNA</text>
	<!-- 
	Generated using the Perl SVG Module V2.50
	by Ronan Oger
	Info: http://www.roitsystems.com/
 -->
</svg>